<svg xmlns="http://www.w3.org/2000/svg" viewBox="96 54 108 108"><rect x="96" y="54" width="108" height="108" rx="22" fill="#fbf8f2"/><defs><mask id="c" maskUnits="userSpaceOnUse" x="90" y="50" width="120" height="110"><rect x="90" y="50" width="120" height="110" fill="#fff"/><g fill="none" stroke="#000" stroke-width="2.4" stroke-linecap="round"><path d="M114 134 Q150 126 186 134"/></g><ellipse cx="150" cy="148.6" rx="23" ry="4" fill="#000"/></mask></defs><g fill="#bc8620" mask="url(#c)" transform="translate(0 -1)"><path d="M148.3 62h3.4v5h4.4v3.2h-4.4v5.3h-3.4v-5.3h-4.4v-3.2h4.4z"/><circle cx="150" cy="81" r="6"/><ellipse cx="150" cy="99.5" rx="8.6" ry="12"/><circle cx="133" cy="104" r="9"/><circle cx="167" cy="104" r="9"/><circle cx="116.5" cy="110" r="10.5"/><circle cx="183.5" cy="110" r="10.5"/><path d="M107 112 Q110 122 113 128 L187 128 Q190 122 193 112 Q170 116 150 116 Q130 116 107 112z"/><path d="M111 127q39-7 78 0l-1.6 14.5q-37.4-6.5-74.8 0z"/><ellipse cx="150" cy="148" rx="34.5" ry="8.2"/></g></svg>
